Coordinates
version=1
nRows=25
nColumns=33
inDegrees=yes

Units are S.I. units (second, meters, Newtons, ...)
Angles are in degrees.

endheader
time	ground_thorax_rot_x	ground_thorax_rot_y	ground_thorax_rot_z	ground_thorax_tx	ground_thorax_ty	ground_thorax_tz	clav_prot_r	clav_elev_r	scapula_abduction_r	scapula_elevation_r	scapula_upward_rot_r	scapula_winging_r	shoulder_elv_r	plane_of_elev_r	axial_rot_r	elbow_flexion_r	pro_sup_r	wrist_flex_r	wrist_dev_r	clav_prot_l	clav_elev_l	scapula_abduction_l	scapula_elevation_l	scapula_upward_rot_l	scapula_winging_l	shoulder_elv_l	plane_of_elev_l	axial_rot_l	elbow_flexion_l	pro_sup_l	wrist_flex_l	wrist_dev_l	
5.7400	38.764793	3.430531	10.398588	-194.634540	899.868991	-3.758730	13.248813	37.891920	38.371693	45.000000	-38.556411	3151.648744	-2630.438594	147.301593	-113.769381	-342.220612	68.301290	18.364321	3.923396	12.324189	-45.000000	-39.494642	45.000000	-40.987051	-2419.650288	-641.672494	19.215107	-52.763365	12.498576	45.470198	6.353970	-23.150939	
5.7500	38.770269	3.239697	10.127372	-191.877883	901.198851	-3.615854	13.247905	38.061212	38.627411	45.000000	-37.766026	3151.521342	-2630.379316	147.272758	-114.076192	-342.086153	69.511597	18.304521	3.805266	12.248195	-45.000000	-39.802511	45.000000	-40.033688	-2419.732523	-641.576171	19.311848	-52.210167	12.433526	44.710421	6.466983	-23.193747	
5.7600	38.767747	3.041290	9.848302	-189.002145	902.339285	-3.461303	13.243606	38.235915	38.885386	45.000000	-36.947294	3151.408420	-2630.329783	147.250204	-114.406478	-341.955851	70.694309	18.245993	3.694303	12.153332	-45.000000	-40.106744	45.000000	-38.993098	-2419.820173	-641.494403	19.390476	-51.737598	12.345132	43.783124	6.612056	-23.232313	
5.7700	38.756523	2.839973	9.576084	-186.013964	903.272842	-3.299226	13.245389	38.412595	39.147853	45.000000	-36.120190	3151.314947	-2630.288739	147.234151	-114.763762	-341.830552	71.847216	18.186046	3.589633	12.040118	-45.000000	-40.400143	45.000000	-37.896479	-2419.912759	-641.430968	19.452687	-51.329045	12.231785	42.671737	6.793138	-23.265789	
5.7800	38.736362	2.643212	9.317463	-182.920486	903.984507	-3.133697	13.269873	38.595394	39.417061	45.000000	-35.294757	3151.233064	-2630.260638	147.223812	-115.136722	-341.712674	72.973931	18.119218	3.488335	11.907889	-45.000000	-40.687206	45.000000	-36.768252	-2420.014806	-641.386575	19.496533	-50.965859	12.092868	41.362760	7.018719	-23.298970	
5.7900	38.706864	2.450996	9.076725	-179.728464	904.461221	-2.967971	13.301650	38.777546	39.690081	45.000000	-34.476744	3151.167594	-2630.245269	147.218423	-115.517579	-341.599204	74.075218	18.047914	3.392211	11.767532	-45.000000	-40.960412	45.000000	-35.644490	-2420.127314	-641.368220	19.532558	-50.620974	11.926126	39.844386	7.289495	-23.326792	
5.8000	38.668545	2.269484	8.855912	-176.444431	904.691783	-2.803920	13.344391	38.960703	39.963697	45.000000	-33.671306	3151.113753	-2630.245463	147.217149	-115.897322	-341.491113	75.152072	17.970805	3.300347	11.619093	-45.000000	-41.223583	45.000000	-34.542803	-2420.253661	-641.373819	19.561616	-50.283510	11.732778	38.118165	7.607735	-23.349806	
5.8100	38.623229	2.093812	8.647305	-173.073719	904.666831	-2.641626	13.365876	39.140757	40.231295	44.999999	-32.863862	3151.068121	-2630.267571	147.215861	-116.261877	-341.387249	76.194972	17.893399	3.217344	11.474859	-45.000000	-41.480288	45.000000	-33.467924	-2420.392695	-641.410503	19.590553	-49.955813	11.513900	36.198322	7.964700	-23.358037	
5.8200	38.575172	1.925466	8.443189	-169.621649	904.378828	-2.479471	13.320315	39.310270	40.482485	44.999999	-32.049252	3151.020007	-2630.315150	147.203179	-116.609033	-341.289851	77.180396	17.825353	3.150198	11.354382	-45.000000	-41.738372	45.000000	-32.442737	-2420.544220	-641.484651	19.632686	-49.634107	11.275436	34.132429	8.338997	-23.339464	
5.8300	38.525710	1.760789	8.243939	-166.092659	903.822272	-2.314501	13.221883	39.471225	40.721802	44.999998	-31.223877	3150.978329	-2630.388985	147.190645	-116.926123	-341.199120	78.096126	17.766206	3.098431	11.248748	-45.000000	-41.991051	45.000000	-31.454267	-2420.709242	-641.596313	19.683322	-49.328956	11.022090	31.962611	8.728824	-23.293493	
5.8400	38.474633	1.606541	8.061769	-162.491846	902.993732	-2.143278	13.142726	39.640455	40.962285	44.999997	-30.414812	3150.945463	-2630.490522	147.185995	-117.220009	-341.119894	78.947701	17.704504	3.054923	11.131552	-45.000000	-42.239283	45.000000	-30.480525	-2420.886518	-641.735714	19.722122	-49.046492	10.763054	29.708254	9.149490	-23.230110	
5.8500	38.423377	1.458059	7.900102	-158.824361	901.892080	-1.962772	13.125751	39.825891	41.212817	44.999994	-29.622087	3150.931076	-2630.620025	147.201554	-117.483710	-341.052910	79.751537	17.632224	3.015140	10.984674	-45.000000	-42.477633	45.000000	-29.499224	-2421.077292	-641.900641	19.735212	-48.796849	10.498479	27.368226	9.614885	-23.152365	
5.8600	38.373421	1.321121	7.760388	-155.096402	900.518468	-1.771244	13.158448	40.022174	41.466274	44.999989	-28.865951	3150.932917	-2630.774676	147.225218	-117.735650	-340.997053	80.514881	17.553114	2.980559	10.817394	-45.000000	-42.708025	45.000000	-28.530288	-2421.280789	-642.092109	19.727576	-48.578669	10.233770	24.962155	10.113341	-23.055583	
5.8700	38.327005	1.193463	7.640554	-151.314649	898.876385	-1.568670	13.233220	40.224313	41.720046	44.999980	-28.143148	3150.958617	-2630.951706	147.261035	-117.976841	-340.950490	81.241313	17.470250	2.951909	10.632927	-45.000000	-42.923471	45.000000	-27.585618	-2421.499570	-642.311527	19.704878	-48.382349	9.966925	22.518701	10.638143	-22.936537	
5.8800	38.286830	1.083800	7.543908	-147.486414	896.971727	-1.356712	13.299671	40.415200	41.965493	44.999964	-27.486437	3150.999943	-2631.144329	147.284819	-118.235529	-340.910349	81.922142	17.396032	2.934286	10.455606	-45.000000	-43.120499	45.000000	-26.719937	-2421.731907	-642.561595	19.688274	-48.194439	9.703711	20.096770	11.153330	-22.791433	
5.8900	38.253958	0.982112	7.461083	-143.619243	894.812795	-1.138183	13.369121	40.598944	42.202410	44.999936	-26.874997	3151.067242	-2631.353188	147.309516	-118.516023	-340.876908	82.545673	17.333157	2.928031	10.283734	-45.000000	-43.303484	45.000000	-25.915905	-2421.977771	-642.841852	19.675451	-47.993337	9.443737	17.748365	11.660914	-22.617821	
5.9000	38.232235	0.892691	7.392764	-139.720265	892.410089	-0.916233	13.377255	40.754473	42.420542	44.999885	-26.328539	3151.153188	-2631.570432	147.312524	-118.832919	-340.847189	83.089573	17.295223	2.939258	10.143961	-45.000000	-43.468080	45.000000	-25.231169	-2422.236423	-643.156255	19.690029	-47.771451	9.193253	15.554132	12.117150	-22.414602	
5.9100	38.220081	0.799126	7.324848	-135.796263	889.775891	-0.693593	13.415070	40.912649	42.634333	44.999793	-25.805061	3151.273061	-2631.804905	147.331060	-119.175890	-340.826124	83.543265	17.271204	2.961219	9.998626	-45.000000	-43.626771	45.000000	-24.571781	-2422.505162	-643.498250	19.701755	-47.518127	8.952515	13.541595	12.557529	-22.191635	
5.9200	38.219121	0.706007	7.260664	-131.853246	886.923737	-0.472074	13.472676	41.069838	42.844821	44.999630	-25.316258	3151.418267	-2632.054544	147.355511	-119.540373	-340.815045	83.896552	17.261473	2.993996	9.848805	-45.000000	-43.777743	45.000000	-23.944634	-2422.780508	-643.866442	19.712811	-47.251806	8.726612	11.734267	12.963414	-21.959736	
5.9300	38.225859	0.618988	7.202664	-127.897007	883.867736	-0.252473	13.592583	41.240714	43.050310	44.999337	-24.857855	3151.592372	-2632.326260	147.394483	-119.919099	-340.821335	84.141862	17.257495	3.034156	9.679182	-45.000000	-43.927687	45.000000	-23.327245	-2423.067072	-644.250534	19.706736	-46.971366	8.516905	10.131928	13.354578	-21.729028	
5.9400	38.241192	0.545965	7.153813	-123.933150	880.621942	-0.034691	13.717808	41.407601	43.239934	44.998812	-24.448201	3151.786479	-2632.613357	147.426116	-120.322241	-340.846876	84.255713	17.270716	3.087886	9.515786	-45.000000	-44.074471	45.000000	-22.772148	-2423.364716	-644.651348	19.704097	-46.672343	8.324876	8.769360	13.698371	-21.502309	
5.9500	38.263912	0.477561	7.104213	-119.968120	877.200069	0.181968	13.891620	41.584991	43.424197	44.997872	-24.066856	3152.009968	-2632.917385	147.473754	-120.757698	-340.898803	84.212249	17.299247	3.154671	9.341842	-45.000000	-44.226509	45.000000	-22.222702	-2423.671322	-645.068162	19.690566	-46.349804	8.142391	7.652542	14.014501	-21.284328	
5.9600	38.295535	0.412980	7.055500	-116.009471	873.615868	0.398590	14.071658	41.756249	43.599689	44.996187	-23.726355	3152.262060	-2633.228166	147.525594	-121.242901	-340.977901	83.975170	17.354487	3.241051	9.176447	-45.000000	-44.377771	45.000000	-21.711634	-2423.984161	-645.505493	19.682043	-46.000441	7.965050	6.793242	14.281843	-21.075083	
5.9700	38.335293	0.353700	7.011074	-112.066209	869.883649	0.616541	14.268510	41.922869	43.769820	44.993175	-23.430302	3152.543103	-2633.544950	147.584063	-121.775944	-341.090246	83.509423	17.433761	3.348823	9.014428	-45.000000	-44.523675	45.000000	-21.247609	-2424.309274	-645.960561	19.676647	-45.616810	7.787061	6.173965	14.512251	-20.878254	
5.9800	38.381853	0.293436	6.968566	-108.148699	866.019419	0.837452	14.473517	42.080511	43.932120	44.987760	-23.177222	3152.853223	-2633.862663	147.643154	-122.358007	-341.236178	82.776059	17.539967	3.482125	8.860605	-45.000000	-44.662195	45.000000	-20.839916	-2424.644794	-646.430613	19.679830	-45.188157	7.608595	5.766091	14.710933	-20.692167	
